<svg id="Capa_1" enable-background="new 0 0 520 520" height="512" viewBox="0 0 520 520" width="512" xmlns="http://www.w3.org/2000/svg"><g><path d="m475 125.016v-35.016c0-24.813-20.187-45-45-45h-210.598l-7.86-12.834c-2.727-4.452-7.571-7.166-12.792-7.166h-153.75c-24.813 0-45 20.187-45 45v380c0 24.813 20.187 45 45 45h430c24.813 0 45-20.187 45-45v-279.984c0-24.814-20.187-45-45-45zm-45-50.016c8.271 0 15 6.729 15 15v35h-176.606l-30.62-50zm60 375c0 8.271-6.729 15-15 15h-430c-8.271 0-15-6.729-15-15v-380c0-8.271 6.729-15 15-15h145.347l7.857 12.83c.001.001.002.003.002.004l48.992 80c.001.001.002.003.003.004l.007.011c2.727 4.452 7.571 7.166 12.792 7.166h215c8.271 0 15 6.729 15 15z"/><path d="m328.32 277.237-60-40c-5.039-3.359-11.602-3.359-16.641 0l-60 40c-4.173 2.781-6.68 7.465-6.68 12.48v40c0 8.284 6.716 15 15 15h15v75c0 8.284 6.716 15 15 15h60c8.284 0 15-6.716 15-15v-75h15c8.284 0 15-6.716 15-15v-40c.001-5.015-2.506-9.698-6.679-12.48zm-23.32 37.481h-15c-8.284 0-15 6.716-15 15v75h-30v-75c0-8.284-6.716-15-15-15h-15v-16.973l45-30 45 30z"/></g></svg>