<?xml version="1.0" encoding="utf-8"?>
<!-- Generator: Adobe Illustrator 24.0.2, SVG Export Plug-In . SVG Version: 6.00 Build 0)  -->
<svg version="1.1" id="Layer_1" xmlns="http://www.w3.org/2000/svg" xmlns:xlink="http://www.w3.org/1999/xlink" x="0px" y="0px"
	 viewBox="0 0 512 512" style="enable-background:new 0 0 512 512;" xml:space="preserve">
<style type="text/css">
	.st0{fill:#FFFFFF;}
	.st1{fill:#CCCCCC;}
	.st2{fill:#999999;}
	.st3{fill:#124A00;}
</style>
<polygon class="st0" points="63.2,508 63.2,4 337.2,4 441.9,108.7 441.9,508 "/>
<path class="st1" d="M335.5,8l102.3,102.3V504H67.2V8H335.5 M338.9,0H59.2v512h386.6V107L338.9,0L338.9,0z"/>
<polygon class="st2" points="445.9,107 338.8,107 338.8,0 "/>
<polygon class="st3" points="407.5,422.9 22,422.9 22,293 490,293 "/>
<polygon class="st2" points="59.2,460.1 59.2,422.9 22,422.9 "/>
<g>
	<path class="st0" d="M161.9,331.9c-1.4-2.7-4-4.1-7.7-4.1c-2.1,0-3.8,0.6-5.1,1.7c-1.3,1.1-2.4,2.9-3.1,5.3
		c-0.8,2.5-1.3,5.7-1.6,9.7c-0.3,4-0.5,8.9-0.5,14.7c0,6.2,0.2,11.2,0.6,15c0.4,3.8,1.1,6.7,1.9,8.9c0.9,2.1,2,3.5,3.3,4.2
		c1.3,0.7,2.9,1.1,4.6,1.1c1.4,0,2.8-0.2,4.1-0.7s2.3-1.5,3.3-3c0.9-1.5,1.7-3.6,2.2-6.3c0.5-2.7,0.8-6.3,0.8-10.7h16.4
		c0,4.4-0.3,8.6-1,12.6c-0.7,4-2,7.4-3.8,10.4c-1.9,3-4.5,5.3-7.9,6.9c-3.4,1.7-7.8,2.5-13.2,2.5c-6.1,0-11.1-1-14.7-3
		c-3.7-2-6.5-4.8-8.4-8.6s-3.2-8.2-3.8-13.4c-0.6-5.2-0.9-10.9-0.9-17.1c0-6.2,0.3-11.9,0.9-17.1c0.6-5.2,1.8-9.7,3.8-13.4
		c2-3.7,4.7-6.6,8.4-8.7c3.6-2.1,8.6-3.1,14.7-3.1c5.9,0,10.5,1,13.9,2.9c3.4,1.9,5.9,4.3,7.6,7.3s2.7,6.1,3.1,9.5
		c0.4,3.4,0.6,6.6,0.6,9.5H164C164,338.9,163.3,334.6,161.9,331.9z"/>
	<path class="st0" d="M215.2,375.8c0,1.9,0.2,3.6,0.5,5.2c0.3,1.6,0.9,2.9,1.7,3.9c0.8,1.1,2,1.9,3.4,2.5c1.4,0.6,3.2,0.9,5.3,0.9
		c2.5,0,4.8-0.8,6.8-2.5c2-1.6,3-4.2,3-7.6c0-1.8-0.3-3.4-0.7-4.7c-0.5-1.3-1.3-2.5-2.5-3.6c-1.2-1.1-2.7-2-4.5-2.9
		c-1.8-0.9-4.2-1.8-6.9-2.7c-3.6-1.2-6.8-2.6-9.5-4c-2.7-1.4-4.9-3.1-6.7-5.1c-1.8-1.9-3.1-4.2-3.9-6.7c-0.8-2.6-1.3-5.5-1.3-8.9
		c0-8.1,2.2-14.1,6.7-18c4.5-4,10.7-5.9,18.5-5.9c3.7,0,7,0.4,10.1,1.2c3.1,0.8,5.7,2.1,8,3.9c2.2,1.8,4,4.1,5.3,6.8
		c1.2,2.8,1.9,6.1,1.9,10v2.3h-15.8c0-3.9-0.7-6.9-2-9c-1.4-2.1-3.7-3.1-6.9-3.1c-1.8,0-3.4,0.3-4.6,0.8c-1.2,0.5-2.2,1.2-2.9,2.1
		c-0.7,0.9-1.2,1.9-1.5,3.1c-0.3,1.1-0.4,2.3-0.4,3.5c0,2.5,0.5,4.6,1.6,6.3c1.1,1.7,3.4,3.3,6.9,4.7l12.7,5.5
		c3.1,1.4,5.7,2.8,7.6,4.3c2,1.5,3.6,3.1,4.7,4.8c1.2,1.7,2,3.6,2.5,5.7c0.5,2,0.7,4.3,0.7,6.8c0,8.6-2.5,14.9-7.5,18.8
		c-5,3.9-11.9,5.9-20.8,5.9c-9.3,0-15.9-2-20-6.1c-4-4-6-9.8-6-17.4v-3.3h16.4C215.2,373.4,215.2,375.8,215.2,375.8z"/>
	<path class="st0" d="M296.4,377.6h0.4l12.1-60.3h17l-18.7,81.6h-21.1l-18.7-81.6h17.6L296.4,377.6z"/>
</g>
</svg>
