<?xml version="1.0" encoding="utf-8"?>
<!-- Generator: Adobe Illustrator 24.0.2, SVG Export Plug-In . SVG Version: 6.00 Build 0)  -->
<svg version="1.1" id="Layer_1" xmlns="http://www.w3.org/2000/svg" xmlns:xlink="http://www.w3.org/1999/xlink" x="0px" y="0px"
	 viewBox="0 0 512 512" style="enable-background:new 0 0 512 512;" xml:space="preserve">
<style type="text/css">
	.st0{fill:#FFFFFF;}
	.st1{fill:#CCCCCC;}
	.st2{fill:#999999;}
	.st3{fill:#124A00;}
</style>
<polygon class="st0" points="63.2,508 63.2,4 337.2,4 441.9,108.7 441.9,508 "/>
<path class="st1" d="M335.5,8l102.3,102.3V504H67.2V8H335.5 M338.9,0H59.2v512h386.6V107L338.9,0L338.9,0z"/>
<polygon class="st2" points="445.9,107 338.8,107 338.8,0 "/>
<polygon class="st3" points="407.5,422.9 22,422.9 22,293 490,293 "/>
<polygon class="st2" points="59.2,460.1 59.2,422.9 22,422.9 "/>
<g>
	<path class="st0" d="M165.9,320.8L143.5,357l23.9,38.5h-16.6l-10.7-17.9c-1.6-2.8-3.2-5.6-4.7-8.4l-1.5-3l-1.6-2.9H132l-1.6,3
		c-1.9,3.6-4,7.3-6.4,11.3l-10.8,17.9H96.2l24.5-38.5l-22.8-36.2h16.9l10,16.6c1.6,2.6,3,5.2,4.4,7.8l1.4,2.6l1.4,2.6h0.2
		c0.6-1.2,1.1-2,1.4-2.6l1.4-2.6c1.2-2.3,2.6-4.8,4.4-7.8l10-16.7H165.9L165.9,320.8z"/>
	<path class="st0" d="M187.8,320.8v62h35v12.7h-49.2v-74.7H187.8z"/>
	<path class="st0" d="M285.3,342.6h-13.8c-0.1-0.7-0.1-1.2-0.1-1.5c-0.3-4.2-1.2-6.8-2.8-7.9s-5.1-1.6-10.8-1.6
		c-6.7,0-11.1,0.6-13.2,1.9c-2.1,1.2-3.1,3.8-3.1,7.8c0,4.7,0.8,7.5,2.5,8.5c1.7,1,7.2,1.7,16.6,2.2c11.1,0.6,18.3,2.2,21.6,4.8
		s4.9,7.9,4.9,15.9c0,9.9-1.9,16.3-5.7,19.2c-3.8,2.9-12.3,4.3-25.3,4.3c-11.7,0-19.5-1.4-23.4-4.3s-5.8-8.6-5.8-17.3l-0.1-2.7h13.8
		l0.1,1.6c0,5.2,0.9,8.4,2.7,9.6c1.8,1.2,6.8,1.7,14.9,1.7c6.3,0,10.4-0.7,12.1-2c1.7-1.3,2.6-4.4,2.6-9.3c0-3.6-0.7-6-2-7.2
		s-4.2-1.9-8.6-2.2l-7.8-0.5c-11.8-0.7-19.4-2.3-22.6-4.9s-4.9-8.1-4.9-16.7c0-8.7,2-14.5,5.9-17.4c4-2.9,11.9-4.4,23.7-4.4
		c11.2,0,18.8,1.3,22.7,4s5.9,7.9,5.9,15.6L285.3,342.6L285.3,342.6L285.3,342.6z"/>
	<path class="st0" d="M359.9,320.8L337.4,357l23.9,38.5h-16.6L334,377.5c-1.7-2.8-3.2-5.6-4.7-8.4l-1.5-3l-1.6-2.9H326l-1.6,3
		c-1.9,3.6-4.1,7.3-6.5,11.3l-10.8,17.9h-17.1l24.5-38.5l-22.8-36.2h16.9l10,16.6c1.6,2.6,3,5.2,4.4,7.8l1.4,2.6l1.4,2.6h0.2
		c0.6-1.2,1.1-2,1.4-2.6l1.4-2.6c1.2-2.3,2.6-4.8,4.4-7.8l10-16.7L359.9,320.8L359.9,320.8z"/>
</g>
</svg>
